<svg version="1.1" id="Layer_1" xmlns="http://www.w3.org/2000/svg" xmlns:xlink="http://www.w3.org/1999/xlink" x="0px" y="0px"
	 width="100%" viewBox="0 0 493 171" enable-background="new 0 0 493 171" xml:space="preserve">
<path fill="#FEFEFE" opacity="1.000000" stroke="none" 
	d="
M351.000000,172.000000 
	C234.000015,172.000000 117.500038,172.000000 1.000047,172.000000 
	C1.000031,115.000031 1.000031,58.000061 1.000016,1.000070 
	C165.333267,1.000046 329.666534,1.000046 493.999878,1.000023 
	C493.999908,57.999928 493.999908,114.999855 493.999939,171.999893 
	C446.500000,172.000000 399.000000,172.000000 351.000000,172.000000 
M298.138824,59.133553 
	C294.759735,59.482018 291.380676,59.830479 287.267609,60.136360 
	C283.173401,62.405567 279.079193,64.674774 274.362305,67.204704 
	C273.184875,68.380684 271.951904,69.506554 270.838776,70.740540 
	C261.673431,80.900963 260.402649,98.090240 268.001343,107.999870 
	C268.001343,107.999870 268.030640,107.949394 267.914917,108.596085 
	C268.256256,109.099884 268.597565,109.603683 269.256165,110.690659 
	C274.161987,114.488022 278.545624,119.546204 284.075623,121.836517 
	C298.298340,127.727043 310.936096,123.160065 321.975403,113.322327 
	C325.676178,110.024384 329.130676,106.450089 333.109741,103.698891 
	C335.644775,106.336815 338.048370,109.117920 340.738464,111.586876 
	C350.340668,120.399704 360.866333,126.845337 374.745087,123.996132 
	C388.242950,121.225128 397.048248,113.020554 400.442535,99.895638 
	C403.729309,87.186317 399.939514,76.035805 390.256378,67.068466 
	C389.523865,66.390099 388.214722,66.334396 386.838196,65.359711 
	C384.505280,63.943779 382.329254,62.088955 379.811859,61.188965 
	C369.681610,57.567299 359.621429,58.388985 350.969757,64.666328 
	C344.093964,69.655174 338.265350,76.087341 331.544189,81.391808 
	C327.047302,76.871086 322.550446,72.350365 317.709381,67.260498 
	C314.473511,65.505783 311.237671,63.751076 307.544006,61.443783 
	C304.692322,60.751968 301.840668,60.060154 298.138824,59.133553 
M453.524536,126.191002 
	C471.493683,120.165817 480.257843,99.760147 472.669617,81.272636 
	C469.379822,73.257568 463.863983,67.131805 455.606903,64.083733 
	C443.469421,59.603199 432.600098,61.816998 423.549255,71.917755 
	C422.809540,68.594292 422.271790,66.178223 421.743439,63.804420 
	C416.961945,63.804420 412.371674,63.804420 407.767334,63.804420 
	C407.767334,93.946098 407.767334,123.780869 407.767334,153.627838 
	C413.125824,153.627838 418.077057,153.627838 423.727844,153.627838 
	C423.727844,141.988922 423.727844,130.521851 423.727844,118.108017 
	C432.337158,127.452492 442.061493,128.827606 453.524536,126.191002 
M28.764378,110.497627 
	C28.764378,115.585892 28.764378,120.674164 28.764378,125.724197 
	C34.437080,125.724197 39.513794,125.724197 44.893078,125.724197 
	C44.893078,123.812828 44.890213,122.178543 44.893551,120.544273 
	C44.913277,110.883942 44.738564,101.218094 45.010403,91.564835 
	C45.280510,81.973137 51.706196,75.698387 60.667591,75.720245 
	C69.159363,75.740959 73.340317,80.519119 73.879448,90.954582 
	C74.033981,93.945572 73.986229,96.948196 73.990623,99.945549 
	C74.003250,108.545998 73.995079,117.146477 73.995079,125.709442 
	C79.591507,125.709442 84.656212,125.709442 89.955254,125.709442 
	C89.955254,114.613213 89.960434,103.810883 89.950584,93.008575 
	C89.948761,91.010361 89.978622,89.005630 89.837212,87.015038 
	C88.621552,69.902222 78.448570,60.545597 62.786072,62.110771 
	C55.594971,62.829388 49.856262,66.310844 44.556953,72.905792 
	C44.556953,59.473534 44.556953,47.419529 44.556953,35.440033 
	C39.122787,35.440033 34.177681,35.440033 28.764376,35.440033 
	C28.764376,60.283421 28.764376,84.891083 28.764378,110.497627 
M182.650421,122.945168 
	C202.003937,133.899429 226.434296,123.934677 228.842987,106.243973 
	C226.493546,106.243973 224.168732,106.312012 221.849243,106.229630 
	C217.200211,106.064491 213.339035,106.284760 209.698761,110.652481 
	C205.461517,115.736481 198.866074,115.113785 193.005966,112.735588 
	C187.409088,110.464218 184.289383,105.035774 184.542694,98.728775 
	C199.975754,98.728775 215.425781,98.728775 230.785309,98.728775 
	C234.027634,86.362595 227.850922,72.342102 216.634720,66.088837 
	C201.467590,57.632854 181.865326,62.298759 173.034134,76.467041 
	C163.330002,92.035835 167.266174,112.193916 182.650421,122.945168 
M255.000198,68.500000 
	C255.000198,57.551563 255.000198,46.603127 255.000198,35.459801 
	C249.499405,35.459801 244.439224,35.459801 239.299927,35.459801 
	C239.299927,65.745010 239.299927,95.777412 239.299927,125.699768 
	C244.674500,125.699768 249.744736,125.699768 255.000198,125.699768 
	C255.000198,106.766647 255.000198,88.133324 255.000198,68.500000 
M142.643250,117.421112 
	C142.714661,109.599159 142.558563,101.766693 142.919464,93.958122 
	C143.304382,85.629829 147.252167,81.235825 155.454971,79.611320 
	C158.620422,78.984421 161.906998,78.969193 164.969330,78.690659 
	C164.969330,72.975670 164.969330,67.591141 164.969330,62.045822 
	C155.144424,62.094025 148.105057,66.705269 142.399673,74.579559 
	C141.727386,70.400139 141.187439,67.043396 140.679443,63.885361 
	C135.713242,63.885361 131.137024,63.885361 126.578705,63.885361 
	C126.578705,84.707222 126.578705,105.135445 126.578705,125.667267 
	C131.995682,125.667267 137.186401,125.667267 142.643234,125.667267 
	C142.643234,123.011757 142.643234,120.701859 142.643250,117.421112 
M115.787712,104.499908 
	C115.787712,91.042465 115.787712,77.585022 115.787712,63.857147 
	C110.268547,63.857147 105.073608,63.857147 99.919701,63.857147 
	C99.919701,84.743301 99.919701,105.278076 99.919701,125.697128 
	C105.336479,125.697128 110.418961,125.697128 115.787704,125.697128 
	C115.787704,118.760101 115.787704,112.129951 115.787712,104.499908 
M106.000397,35.377567 
	C99.533897,37.292755 97.056435,40.438839 97.751434,45.852779 
	C98.331039,50.367794 102.138885,53.615932 107.136765,53.858566 
	C112.225204,54.105595 116.463219,51.027863 117.493080,46.337620 
	C118.836456,40.219570 114.723114,35.971252 106.000397,35.377567 
z"/>
<path fill="#070707" opacity="1.000000" stroke="none" 
	d="
M453.142731,126.321503 
	C442.061493,128.827606 432.337158,127.452492 423.727844,118.108017 
	C423.727844,130.521851 423.727844,141.988922 423.727844,153.627838 
	C418.077057,153.627838 413.125824,153.627838 407.767334,153.627838 
	C407.767334,123.780869 407.767334,93.946098 407.767334,63.804420 
	C412.371674,63.804420 416.961945,63.804420 421.743439,63.804420 
	C422.271790,66.178223 422.809540,68.594292 423.549255,71.917755 
	C432.600098,61.816998 443.469421,59.603199 455.606903,64.083733 
	C463.863983,67.131805 469.379822,73.257568 472.669617,81.272636 
	C480.257843,99.760147 471.493683,120.165817 453.142731,126.321503 
M458.779510,97.068062 
	C459.222900,88.779800 456.734528,81.853073 448.940521,77.964775 
	C442.462708,74.733093 435.890808,75.274330 430.174255,79.764481 
	C423.562836,84.957520 422.270264,92.133354 423.964508,100.005829 
	C425.699890,108.069511 432.374512,113.244926 440.902893,113.296753 
	C450.378723,113.354340 456.222107,108.288170 458.779510,97.068062 
z"/>
<path fill="#030303" opacity="1.000000" stroke="none" 
	d="
M28.764378,109.998184 
	C28.764376,84.891083 28.764376,60.283421 28.764376,35.440033 
	C34.177681,35.440033 39.122787,35.440033 44.556953,35.440033 
	C44.556953,47.419529 44.556953,59.473534 44.556953,72.905792 
	C49.856262,66.310844 55.594971,62.829388 62.786072,62.110771 
	C78.448570,60.545597 88.621552,69.902222 89.837212,87.015038 
	C89.978622,89.005630 89.948761,91.010361 89.950584,93.008575 
	C89.960434,103.810883 89.955254,114.613213 89.955254,125.709442 
	C84.656212,125.709442 79.591507,125.709442 73.995079,125.709442 
	C73.995079,117.146477 74.003250,108.545998 73.990623,99.945549 
	C73.986229,96.948196 74.033981,93.945572 73.879448,90.954582 
	C73.340317,80.519119 69.159363,75.740959 60.667591,75.720245 
	C51.706196,75.698387 45.280510,81.973137 45.010403,91.564835 
	C44.738564,101.218094 44.913277,110.883942 44.893551,120.544273 
	C44.890213,122.178543 44.893078,123.812828 44.893078,125.724197 
	C39.513794,125.724197 34.437080,125.724197 28.764378,125.724197 
	C28.764378,120.674164 28.764378,115.585892 28.764378,109.998184 
z"/>
<path fill="#060606" opacity="1.000000" stroke="none" 
	d="
M182.341568,122.748001 
	C167.266174,112.193916 163.330002,92.035835 173.034134,76.467041 
	C181.865326,62.298759 201.467590,57.632854 216.634720,66.088837 
	C227.850922,72.342102 234.027634,86.362595 230.785309,98.728775 
	C215.425781,98.728775 199.975754,98.728775 184.542694,98.728775 
	C184.289383,105.035774 187.409088,110.464218 193.005966,112.735588 
	C198.866074,115.113785 205.461517,115.736481 209.698761,110.652481 
	C213.339035,106.284760 217.200211,106.064491 221.849243,106.229630 
	C224.168732,106.312012 226.493546,106.243973 228.842987,106.243973 
	C226.434296,123.934677 202.003937,133.899429 182.341568,122.748001 
M202.483154,88.680450 
	C206.576355,88.680450 210.669540,88.680450 214.761322,88.680450 
	C214.619980,80.826195 209.391693,75.654976 201.522934,75.110481 
	C192.742401,74.502884 185.929245,79.813744 184.687408,88.680435 
	C190.329483,88.680435 195.909485,88.680435 202.483154,88.680450 
z"/>
<path fill="#601CEA" opacity="1.000000" stroke="none" 
	d="
M331.971832,81.878708 
	C338.265350,76.087341 344.093964,69.655174 350.969757,64.666328 
	C359.621429,58.388985 369.681610,57.567299 379.811859,61.188965 
	C382.329254,62.088955 384.505280,63.943779 387.064972,65.999641 
	C393.715332,72.839577 395.885071,80.489799 394.982086,89.189003 
	C394.082794,97.852890 387.027069,106.693588 380.088074,107.692291 
	C381.588196,105.938667 383.139648,104.629623 384.304138,103.037567 
	C389.939087,95.333748 389.317993,84.897041 382.946228,78.323837 
	C376.177368,71.341003 365.615997,69.713966 358.036591,75.734444 
	C351.747650,80.729889 346.565826,87.119194 340.595642,93.046494 
	C337.764404,96.468689 335.231079,99.735405 332.697754,103.002113 
	C329.130676,106.450089 325.676178,110.024384 321.975403,113.322327 
	C310.936096,123.160065 298.298340,127.727043 284.075623,121.836517 
	C278.545624,119.546204 274.161987,114.488022 269.167725,110.046959 
	C268.729736,108.918640 268.380188,108.434013 268.030640,107.949387 
	C268.030640,107.949394 268.001343,107.999870 268.186462,107.588531 
	C264.650269,95.498123 267.554199,85.484344 276.338470,76.841873 
	C280.453369,75.141800 284.221436,73.461304 288.406799,71.869614 
	C289.954620,72.069016 291.085175,72.179619 291.953094,72.530998 
	C283.214966,74.751915 278.191132,80.099960 276.596283,88.578651 
	C275.176941,96.124420 277.819550,102.420593 283.695038,107.024139 
	C290.299286,112.198662 298.137970,113.174133 305.051239,108.624649 
	C311.723572,104.233734 317.281891,98.149994 323.582275,92.631981 
	C326.547272,88.928940 329.259552,85.403824 331.971832,81.878708 
z"/>
<path fill="#010101" opacity="1.000000" stroke="none" 
	d="
M255.000198,69.000000 
	C255.000198,88.133324 255.000198,106.766647 255.000198,125.699768 
	C249.744736,125.699768 244.674500,125.699768 239.299927,125.699768 
	C239.299927,95.777412 239.299927,65.745010 239.299927,35.459801 
	C244.439224,35.459801 249.499405,35.459801 255.000198,35.459801 
	C255.000198,46.603127 255.000198,57.551563 255.000198,69.000000 
z"/>
<path fill="#090909" opacity="1.000000" stroke="none" 
	d="
M142.643250,117.906532 
	C142.643234,120.701859 142.643234,123.011757 142.643234,125.667267 
	C137.186401,125.667267 131.995682,125.667267 126.578705,125.667267 
	C126.578705,105.135445 126.578705,84.707222 126.578705,63.885361 
	C131.137024,63.885361 135.713242,63.885361 140.679443,63.885361 
	C141.187439,67.043396 141.727386,70.400139 142.399673,74.579559 
	C148.105057,66.705269 155.144424,62.094025 164.969330,62.045822 
	C164.969330,67.591141 164.969330,72.975670 164.969330,78.690659 
	C161.906998,78.969193 158.620422,78.984421 155.454971,79.611320 
	C147.252167,81.235825 143.304382,85.629829 142.919464,93.958122 
	C142.558563,101.766693 142.714661,109.599159 142.643250,117.906532 
z"/>
<path fill="#1CA8C8" opacity="1.000000" stroke="none" 
	d="
M332.903748,103.350510 
	C335.231079,99.735405 337.764404,96.468689 340.863373,93.263458 
	C344.246765,96.358414 346.854034,99.626541 349.923065,102.379944 
	C358.070190,109.689262 367.035187,114.110901 378.473450,108.993179 
	C379.196991,108.650879 379.603638,108.301620 380.011810,107.978615 
	C380.013336,108.004860 379.961121,108.006424 379.961121,108.006424 
	C387.027069,106.693588 394.082794,97.852890 394.982086,89.189003 
	C395.885071,80.489799 393.715332,72.839577 387.232666,66.314407 
	C388.214722,66.334396 389.523865,66.390099 390.256378,67.068466 
	C399.939514,76.035805 403.729309,87.186317 400.442535,99.895638 
	C397.048248,113.020554 388.242950,121.225128 374.745087,123.996132 
	C360.866333,126.845337 350.340668,120.399704 340.738464,111.586876 
	C338.048370,109.117920 335.644775,106.336815 332.903748,103.350510 
z"/>
<path fill="#050505" opacity="1.000000" stroke="none" 
	d="
M115.787704,104.999855 
	C115.787704,112.129951 115.787704,118.760101 115.787704,125.697128 
	C110.418961,125.697128 105.336479,125.697128 99.919701,125.697128 
	C99.919701,105.278076 99.919701,84.743301 99.919701,63.857147 
	C105.073608,63.857147 110.268547,63.857147 115.787712,63.857147 
	C115.787712,77.585022 115.787712,91.042465 115.787704,104.999855 
z"/>
<path fill="#070707" opacity="1.000000" stroke="none" 
	d="
M106.391663,35.326797 
	C114.723114,35.971252 118.836456,40.219570 117.493080,46.337620 
	C116.463219,51.027863 112.225204,54.105595 107.136765,53.858566 
	C102.138885,53.615932 98.331039,50.367794 97.751434,45.852779 
	C97.056435,40.438839 99.533897,37.292755 106.391663,35.326797 
z"/>
<path fill="#56C68A" opacity="1.000000" stroke="none" 
	d="
M331.757996,81.635254 
	C329.259552,85.403824 326.547272,88.928940 323.493652,92.299500 
	C320.426392,88.766701 317.700409,85.388458 315.369476,81.920738 
	C316.176331,80.210091 316.723816,78.609238 316.970520,76.963303 
	C317.424805,73.932732 317.702362,70.875671 318.053558,67.829651 
	C322.550446,72.350365 327.047302,76.871086 331.757996,81.635254 
z"/>
<path fill="#7ED464" opacity="1.000000" stroke="none" 
	d="
M275.991638,76.861458 
	C267.554199,85.484344 264.650269,95.498123 268.215576,107.586548 
	C260.402649,98.090240 261.673431,80.900963 270.838776,70.740540 
	C271.951904,69.506554 273.184875,68.380684 274.725464,67.481270 
	C275.389618,70.792374 275.690613,73.826920 275.991638,76.861458 
z"/>
<path fill="#5CCA81" opacity="1.000000" stroke="none" 
	d="
M317.881470,67.545074 
	C317.702362,70.875671 317.424805,73.932732 316.970520,76.963303 
	C316.723816,78.609238 316.176331,80.210091 315.063721,81.789101 
	C311.798218,79.546761 309.233490,77.346596 307.013367,74.883476 
	C307.572632,70.412476 307.787231,66.204422 308.001831,61.996368 
	C311.237671,63.751076 314.473511,65.505783 317.881470,67.545074 
z"/>
<path fill="#72D269" opacity="1.000000" stroke="none" 
	d="
M276.338470,76.841873 
	C275.690613,73.826920 275.389618,70.792374 275.036804,67.350906 
	C279.079193,64.674774 283.173401,62.405567 287.634003,60.603058 
	C287.996765,64.640106 287.993134,68.210457 287.989502,71.780807 
	C284.221436,73.461304 280.453369,75.141800 276.338470,76.841873 
z"/>
<path fill="#68CF71" opacity="1.000000" stroke="none" 
	d="
M288.406799,71.869614 
	C287.993134,68.210457 287.996765,64.640106 288.000977,60.624348 
	C291.380676,59.830479 294.759735,59.482018 298.567383,59.683678 
	C298.997284,62.190338 298.883972,64.155365 299.028168,66.101334 
	C299.221405,68.710373 298.913940,70.935654 295.612885,71.929901 
	C294.234772,72.117760 293.225250,72.203995 292.215729,72.290222 
	C291.085175,72.179619 289.954620,72.069016 288.406799,71.869614 
z"/>
<path fill="#64CC7C" opacity="1.000000" stroke="none" 
	d="
M295.981476,71.828278 
	C298.913940,70.935654 299.221405,68.710373 299.028168,66.101334 
	C298.883972,64.155365 298.997284,62.190338 298.992432,59.801071 
	C301.840668,60.060154 304.692322,60.751968 307.772919,61.720078 
	C307.787231,66.204422 307.572632,70.412476 306.669678,74.801422 
	C302.648010,73.930977 299.314758,72.879623 295.981476,71.828278 
z"/>
<path fill="#7ED464" opacity="1.000000" stroke="none" 
	d="
M267.972778,108.272736 
	C268.380188,108.434013 268.729736,108.918640 269.009094,109.755371 
	C268.597565,109.603683 268.256256,109.099884 267.972778,108.272736 
z"/>
<path fill="#FCFCFC" opacity="1.000000" stroke="none" 
	d="
M458.726196,97.479149 
	C456.222107,108.288170 450.378723,113.354340 440.902893,113.296753 
	C432.374512,113.244926 425.699890,108.069511 423.964508,100.005829 
	C422.270264,92.133354 423.562836,84.957520 430.174255,79.764481 
	C435.890808,75.274330 442.462708,74.733093 448.940521,77.964775 
	C456.734528,81.853073 459.222900,88.779800 458.726196,97.479149 
z"/>
<path fill="#F2F2F2" opacity="1.000000" stroke="none" 
	d="
M201.986313,88.680443 
	C195.909485,88.680435 190.329483,88.680435 184.687408,88.680435 
	C185.929245,79.813744 192.742401,74.502884 201.522934,75.110481 
	C209.391693,75.654976 214.619980,80.826195 214.761322,88.680450 
	C210.669540,88.680450 206.576355,88.680450 201.986313,88.680443 
z"/>
<path fill="#FDFDFE" opacity="1.000000" stroke="none" 
	d="
M295.612885,71.929901 
	C299.314758,72.879623 302.648010,73.930977 306.325012,75.064377 
	C309.233490,77.346596 311.798218,79.546761 314.668701,81.878571 
	C317.700409,85.388458 320.426392,88.766701 323.240967,92.477432 
	C317.281891,98.149994 311.723572,104.233734 305.051239,108.624649 
	C298.137970,113.174133 290.299286,112.198662 283.695038,107.024139 
	C277.819550,102.420593 275.176941,96.124420 276.596283,88.578651 
	C278.191132,80.099960 283.214966,74.751915 291.953094,72.530998 
	C293.225250,72.203995 294.234772,72.117760 295.612885,71.929901 
z"/>
<path fill="#FEFEFF" opacity="1.000000" stroke="none" 
	d="
M378.156555,108.986221 
	C367.035187,114.110901 358.070190,109.689262 349.923065,102.379944 
	C346.854034,99.626541 344.246765,96.358414 341.161285,93.107971 
	C346.565826,87.119194 351.747650,80.729889 358.036591,75.734444 
	C365.615997,69.713966 376.177368,71.341003 382.946228,78.323837 
	C389.317993,84.897041 389.939087,95.333748 384.304138,103.037567 
	C383.139648,104.629623 381.588196,105.938667 380.088074,107.692291 
	C379.961121,108.006424 380.013336,108.004860 379.693054,107.966194 
	C378.967377,108.280426 378.561981,108.633324 378.156555,108.986221 
z"/>
<path fill="#601CEA" opacity="1.000000" stroke="none" 
	d="
M378.473450,108.993179 
	C378.561981,108.633324 378.967377,108.280426 379.691528,107.939949 
	C379.603638,108.301620 379.196991,108.650879 378.473450,108.993179 
z"/>
</svg>